HIERARCHY
ROOT Hips
{
	OFFSET	0.000000	0.000000	0.000000
	CHANNELS 6 Xposition Yposition Zposition Zrotation Xrotation Yrotation
	JOINT LeftHip
	{
		OFFSET	11.298960	-8.380145	1.031225
		CHANNELS 3 Zrotation Xrotation Yrotation
		JOINT LeftKnee
		{
			OFFSET	-1.779039	-39.577010	0.417431
			CHANNELS 3 Zrotation Xrotation Yrotation
			JOINT LeftAnkle
			{
				OFFSET	0.890862	-42.943018	-6.321374
				CHANNELS 3 Zrotation Xrotation Yrotation
				JOINT LeftAnkleEnd
				{
					OFFSET	-0.632740	-5.685484	-5.621922
					CHANNELS 3 Zrotation Xrotation Yrotation
					End Site
					{
						OFFSET	0.012764	-1.270000	17.907023
					}
				}
			}
		}
	}
	JOINT RightHip
	{
		OFFSET	-11.298960	-8.380145	1.031225
		CHANNELS 3 Zrotation Xrotation Yrotation
		JOINT RightKnee
		{
			OFFSET	1.779039	-39.577010	0.417431
			CHANNELS 3 Zrotation Xrotation Yrotation
			JOINT RightAnkle
			{
				OFFSET	-0.890862	-42.943018	-6.321374
				CHANNELS 3 Zrotation Xrotation Yrotation
				JOINT RightAnkleEnd
				{
					OFFSET	0.632740	-5.685484	-5.621922
					CHANNELS 3 Zrotation Xrotation Yrotation
					End Site
					{
						OFFSET	-0.012764	-1.270000	17.907023
					}
				}
			}
		}
	}
	JOINT Chest
	{
		OFFSET	0.000013	6.720637	2.223076
		CHANNELS 3 Zrotation Xrotation Yrotation
		JOINT Chest1
		{
			OFFSET	-0.073051	18.182640	-2.749017
			CHANNELS 3 Zrotation Xrotation Yrotation
			JOINT LeftCollar
			{
				OFFSET	7.790763	29.076902	-2.820492
				CHANNELS 3 Zrotation Xrotation Yrotation
				JOINT LeftShoulder
				{
					OFFSET	13.187018	-7.309688	1.779387
					CHANNELS 3 Zrotation Xrotation Yrotation
					JOINT LeftElbow
					{
						OFFSET	3.671976	-29.168340	5.964022
						CHANNELS 3 Zrotation Xrotation Yrotation
						JOINT LeftWrist
						{
							OFFSET	0.572018	-25.624790	10.228225
							CHANNELS 3 Zrotation Xrotation Yrotation
							End Site
							{
								OFFSET	-1.779270	-8.879179	2.542515
							}
						}
					}
				}
			}
			JOINT RightCollar
			{
				OFFSET	-7.644689	29.076902	-2.820492
				CHANNELS 3 Zrotation Xrotation Yrotation
				JOINT RightShoulder
				{
					OFFSET	-13.187018	-7.309688	1.779387
					CHANNELS 3 Zrotation Xrotation Yrotation
					JOINT RightElbow
					{
						OFFSET	-3.671976	-29.168340	5.964022
						CHANNELS 3 Zrotation Xrotation Yrotation
						JOINT RightWrist
						{
							OFFSET	-0.572018	-25.624790	10.228225
							CHANNELS 3 Zrotation Xrotation Yrotation
							End Site
							{
								OFFSET	1.779270	-8.879179	2.542515
							}
						}
					}
				}
			}
			JOINT Neck
			{
				OFFSET	-0.441376	29.919930	-1.795122
				CHANNELS 3 Zrotation Xrotation Yrotation
				JOINT Head
				{
					OFFSET	-0.451988	10.184461	3.285312
					CHANNELS 3 Zrotation Xrotation Yrotation
					End Site
					{
						OFFSET	-0.448112	13.050622	-3.935146
					}
				}
			}
		}
	}
}
MOTION
Frames:     11
Frame Time: 0.008333
0.000000	99.135197	0.000000	0.025722	0.091593	-0.544673	-0.102317	0.106316	0.001510	0.056306	-0.182469	0.464529	-0.064139	0.047679	0.193690	0.	0.	0.	0.013647	-0.155403	0.141583	-0.105222	0.049900	0.276789	-0.010199	0.005644	0.172968	0.	0.	0.	-0.222225	0.244732	-0.034715	-0.145780	-0.385370	0.309428	-0.105354	0.320024	0.934202	0.170433	-0.386072	-0.708181	-0.082856	-0.071455	-0.065608	-0.070173	0.254661	0.175631	0.267480	0.016565	0.370585	-0.222973	0.198970	0.097195	-0.498578	-0.033608	0.511012	0.235599	-0.141928	-0.533889	-0.576493	0.405265	0.631765	0.425433	-0.173726	-0.016428	
0.000000	99.135197	0.000000	0.025722	0.091593	-0.544673	-0.102317	0.106316	0.001510	0.056306	-0.182469	0.464529	-0.064139	0.047679	0.193690	0.	0.	0.	0.013647	-0.155403	0.141583	-0.105222	0.049900	0.276789	-0.010199	0.005644	0.172968	0.	0.	0.	-0.222187	0.251936	-0.042358	-0.145707	-0.392161	0.314743	-0.105354	0.320024	0.934202	0.170433	-0.386072	-0.708181	-0.082857	-0.071455	-0.066449	-0.075446	0.254661	0.175631	0.263582	0.014059	0.377083	-0.219694	0.203125	0.101386	-0.506519	-0.035598	0.517128	0.235068	-0.141928	-0.533889	-0.585045	0.408240	0.635416	0.435666	-0.164668	-0.016428	
0.000000	99.135197	0.000000	0.025722	0.091593	-0.544673	-0.102317	0.106316	0.001510	0.056306	-0.182469	0.464529	-0.064139	0.047679	0.193690	0.	0.	0.	0.013647	-0.155403	0.141583	-0.105222	0.049900	0.276789	-0.010199	0.005644	0.172968	0.	0.	0.	-0.222156	0.260839	-0.047877	-0.145629	-0.401069	0.318855	-0.105354	0.320024	0.934202	0.170433	-0.386072	-0.708181	-0.082861	-0.071455	-0.069908	-0.081494	0.254661	0.175631	0.259921	0.011113	0.383743	-0.216052	0.207669	0.105175	-0.511340	-0.038450	0.519063	0.232082	-0.141928	-0.533889	-0.594572	0.412045	0.638962	0.447224	-0.153590	-0.016428	
0.000000	99.135197	0.000000	0.025722	0.091593	-0.544673	-0.102317	0.106316	0.001510	0.056306	-0.182469	0.464529	-0.064139	0.047679	0.193690	0.	0.	0.	0.013647	-0.155403	0.141583	-0.105222	0.049900	0.276789	-0.010199	0.005644	0.172968	0.	0.	0.	-0.222126	0.270102	-0.052599	-0.145555	-0.410411	0.321976	-0.105354	0.320024	0.934202	0.170433	-0.386072	-0.708181	-0.082866	-0.071455	-0.074249	-0.088101	0.254661	0.175631	0.256141	0.007977	0.390714	-0.212191	0.212454	0.108930	-0.515493	-0.041442	0.519583	0.228861	-0.141928	-0.533889	-0.605146	0.416360	0.642811	0.460157	-0.141550	-0.016428	
0.000000	99.135197	0.000000	0.025722	0.091593	-0.544673	-0.102317	0.106316	0.001510	0.056306	-0.182469	0.464529	-0.064139	0.047679	0.193690	0.	0.	0.	0.013647	-0.155403	0.141583	-0.105222	0.049900	0.276789	-0.010199	0.005644	0.172968	0.	0.	0.	-0.222098	0.279854	-0.056402	-0.145483	-0.420345	0.324140	-0.105354	0.320024	0.934202	0.170433	-0.386072	-0.708181	-0.082873	-0.071455	-0.079551	-0.095256	0.254661	0.175631	0.252308	0.004699	0.397895	-0.208144	0.217440	0.112616	-0.518756	-0.044646	0.518661	0.225346	-0.141928	-0.533889	-0.616656	0.421175	0.646895	0.474284	-0.128708	-0.016428	
0.000000	99.135197	0.000000	0.025722	0.091593	-0.544673	-0.102317	0.106316	0.001510	0.056306	-0.182469	0.464529	-0.064139	0.047679	0.193690	0.	0.	0.	0.013647	-0.155403	0.141583	-0.105222	0.049900	0.276789	-0.010199	0.005644	0.172968	0.	0.	0.	-0.225976	0.290215	-0.059204	-0.141700	-0.431011	0.325443	-0.105354	0.320024	0.934202	0.170433	-0.386072	-0.708181	-0.082879	-0.070481	-0.085828	-0.102909	0.254661	0.175631	0.248502	0.001353	0.405144	-0.203969	0.222558	0.116196	-0.520935	-0.048125	0.516388	0.221526	-0.141928	-0.533889	-0.628913	0.426452	0.651120	0.489296	-0.115333	-0.019475	
0.000000	99.135197	0.000000	0.025722	0.091593	-0.544673	-0.102317	0.106316	0.001510	0.056306	-0.182469	0.464529	-0.064139	0.047679	0.193690	0.	0.	0.	0.013647	-0.155403	0.141583	-0.105222	0.049900	0.276789	-0.010199	0.005644	0.172968	0.	0.	0.	-0.229360	0.301282	-0.060976	-0.138857	-0.442524	0.326035	-0.105354	0.320024	0.934202	0.170433	-0.386072	-0.708181	-0.082886	-0.069293	-0.093020	-0.110982	0.254661	0.175631	0.244810	-0.001959	0.412295	-0.199743	0.227719	0.119639	-0.521892	-0.051925	0.512977	0.217458	-0.141928	-0.533889	-0.641663	0.432119	0.655379	0.504802	-0.101785	-0.023278	
0.000000	99.135197	0.000000	0.025722	0.091593	-0.544673	-0.102317	0.106316	0.001510	0.056306	-0.182469	0.464529	-0.064139	0.047679	0.193690	0.	0.	0.	0.013647	-0.155403	0.141583	-0.105222	0.049900	0.276789	-0.010199	0.005644	0.172968	0.	0.	0.	-0.232536	0.313112	-0.061742	-0.136352	-0.454954	0.326101	-0.105354	0.320024	0.934202	0.170433	-0.386072	-0.708181	-0.082894	-0.068037	-0.100986	-0.119377	0.254661	0.175631	0.241310	-0.005115	0.419170	-0.195556	0.232815	0.122920	-0.521573	-0.056059	0.508759	0.213247	-0.145617	-0.534987	-0.654625	0.438087	0.659568	0.520351	-0.088487	-0.027456	
0.000000	99.135197	0.000000	0.025722	0.091593	-0.544673	-0.102317	0.106316	0.001510	0.056306	-0.182469	0.464529	-0.064139	0.047679	0.193690	0.	0.	0.	0.013647	-0.155403	0.141583	-0.105222	0.049900	0.276789	-0.010199	0.005644	0.172968	0.	0.	0.	-0.235468	0.325713	-0.061587	-0.134151	-0.468319	0.325831	-0.105354	0.320024	0.934202	0.170433	-0.386072	-0.708181	-0.082901	-0.066744	-0.109505	-0.127988	0.254661	0.175631	0.238059	-0.007977	0.425601	-0.191503	0.237736	0.126026	-0.520024	-0.060497	0.504150	0.209214	-0.144833	-0.536500	-0.667520	0.444259	0.663600	0.535487	-0.075881	-0.031989	
0.000000	99.135197	0.000000	0.025722	0.091593	-0.544673	-0.102317	0.106316	0.001510	0.056306	-0.182469	0.464529	-0.064139	0.047679	0.193690	0.	0.	0.	0.013647	-0.155403	0.141583	-0.105222	0.049900	0.276789	-0.010199	0.005644	0.172968	0.	0.	0.	-0.238127	0.339044	-0.060652	-0.132187	-0.482577	0.325403	-0.105354	0.320024	0.934202	0.170433	-0.386072	-0.708181	-0.082909	-0.065462	-0.118289	-0.136720	0.254661	0.175631	0.235084	-0.010403	0.431454	-0.187673	0.242376	0.128956	-0.517410	-0.065156	0.499621	0.205669	-0.142742	-0.538157	-0.680109	0.450540	0.667420	0.549791	-0.064379	-0.036827	
0.000000	99.135197	0.000000	0.025722	0.091593	-0.544673	-0.102317	0.106316	0.001510	0.056306	-0.182469	0.464529	-0.064139	0.047679	0.193690	0.	0.	0.	0.013647	-0.155403	0.141583	-0.105222	0.049900	0.276789	-0.010199	0.005644	0.172968	0.	0.	0.	-0.240490	0.353007	-0.059131	-0.130358	-0.497638	0.324961	-0.105354	0.320024	0.934202	0.170433	-0.386072	-0.708181	-0.082916	-0.064251	-0.126992	-0.145493	0.254661	0.175631	0.232371	-0.012258	0.436641	-0.184141	0.246642	0.131725	-0.514007	-0.069895	0.495649	0.203034	-0.139343	-0.539904	-0.692218	0.456855	0.671018	0.562924	-0.054317	-0.041891	
